<svg width="24" height="24" viewBox="0 0 24 24" fill="none" xmlns="http://www.w3.org/2000/svg"
    class="group-icon-filled">
    <path fill-rule="evenodd" clip-rule="evenodd"
        d="M11.6371 7.625C12.6442 7.625 13.4608 8.48481 13.4608 9.5453C13.4608 10.6058 12.6442 11.4656 11.6371 11.4656C10.63 11.4656 9.81348 10.6058 9.81348 9.5453C9.81348 8.48481 10.63 7.625 11.6371 7.625Z"
        fill="#222020"></path>
    <path
        d="M11.7197 12.2367C11.7403 12.2372 11.7608 12.237 11.7812 12.2376C13.2115 12.2766 14.2679 12.6568 14.8662 12.9417C15.2129 13.1071 15.4326 13.4714 15.4326 13.8724V15.306H7.625V13.8724C7.625 13.4715 7.84383 13.1072 8.19043 12.9417C8.78865 12.6569 9.84523 12.2767 11.2754 12.2376C11.2958 12.237 11.3163 12.2372 11.3369 12.2367C11.3958 12.2355 11.4555 12.2337 11.5156 12.2337H11.542C11.6019 12.2337 11.6611 12.2355 11.7197 12.2367Z"
        fill="#222020"></path>
    <path
        d="M11.6875 1.5C12.4811 1.5 13.125 2.14386 13.125 2.9375C13.125 3.73114 12.4811 4.375 11.6875 4.375C10.8939 4.375 10.25 3.73114 10.25 2.9375C10.25 2.14386 10.8939 1.5 11.6875 1.5Z"
        fill="#222020" stroke="#222020" stroke-linecap="square"></path>
    <path
        d="M11.6875 19.625C12.4811 19.625 13.125 20.2689 13.125 21.0625C13.125 21.8561 12.4811 22.5 11.6875 22.5C10.8939 22.5 10.25 21.8561 10.25 21.0625C10.25 20.2689 10.8939 19.625 11.6875 19.625Z"
        fill="#222020" stroke="#222020" stroke-linecap="square"></path>
    <path
        d="M4.8125 4C5.60614 4 6.25 4.64386 6.25 5.4375C6.25 6.23114 5.60614 6.875 4.8125 6.875C4.01886 6.875 3.375 6.23114 3.375 5.4375C3.375 4.64386 4.01886 4 4.8125 4Z"
        fill="#222020" stroke="#222020" stroke-linecap="square"></path>
    <path
        d="M17.9375 4C18.7311 4 19.375 4.64386 19.375 5.4375C19.375 6.23114 18.7311 6.875 17.9375 6.875C17.1439 6.875 16.5 6.23114 16.5 5.4375C16.5 4.64386 17.1439 4 17.9375 4Z"
        fill="#222020" stroke="#222020" stroke-linecap="square"></path>
    <path
        d="M4.1875 16.5C4.98114 16.5 5.625 17.1439 5.625 17.9375C5.625 18.7311 4.98114 19.375 4.1875 19.375C3.39386 19.375 2.75 18.7311 2.75 17.9375C2.75 17.1439 3.39386 16.5 4.1875 16.5Z"
        fill="#222020" stroke="#222020" stroke-linecap="square"></path>
    <path
        d="M2.9375 10.875C3.73114 10.875 4.375 11.5189 4.375 12.3125C4.375 13.1061 3.73114 13.75 2.9375 13.75C2.14386 13.75 1.5 13.1061 1.5 12.3125C1.5 11.5189 2.14386 10.875 2.9375 10.875Z"
        fill="#222020" stroke="#222020" stroke-linecap="square"></path>
    <path
        d="M21.0625 10.25C21.8561 10.25 22.5 10.8939 22.5 11.6875C22.5 12.4811 21.8561 13.125 21.0625 13.125C20.2689 13.125 19.625 12.4811 19.625 11.6875C19.625 10.8939 20.2689 10.25 21.0625 10.25Z"
        fill="#222020" stroke="#222020" stroke-linecap="square"></path>
    <path
        d="M18.5625 16.5C19.3561 16.5 20 17.1439 20 17.9375C20 18.7311 19.3561 19.375 18.5625 19.375C17.7689 19.375 17.125 18.7311 17.125 17.9375C17.125 17.1439 17.7689 16.5 18.5625 16.5Z"
        fill="#222020" stroke="#222020" stroke-linecap="square"></path>
</svg>