<svg width="24" height="24" viewBox="0 0 24 24" fill="none" xmlns="http://www.w3.org/2000/svg"
    class="group-icon">
    <path
        d="M11.6875 1.34961C12.564 1.34961 13.2754 2.06101 13.2754 2.9375C13.2754 3.81399 12.564 4.52539 11.6875 4.52539C10.811 4.52539 10.0996 3.81399 10.0996 2.9375C10.0996 2.06101 10.811 1.34961 11.6875 1.34961Z"
        stroke="#554D4D" stroke-width="1.3" stroke-linecap="square"></path>
    <path
        d="M11.6875 19.4746C12.564 19.4746 13.2754 20.186 13.2754 21.0625C13.2754 21.939 12.564 22.6504 11.6875 22.6504C10.811 22.6504 10.0996 21.939 10.0996 21.0625C10.0996 20.186 10.811 19.4746 11.6875 19.4746Z"
        stroke="#554D4D" stroke-width="1.3" stroke-linecap="square"></path>
    <path
        d="M4.8125 3.84961C5.68899 3.84961 6.40039 4.56101 6.40039 5.4375C6.40039 6.31399 5.68899 7.02539 4.8125 7.02539C3.93601 7.02539 3.22461 6.31399 3.22461 5.4375C3.22461 4.56101 3.93601 3.84961 4.8125 3.84961Z"
        stroke="#554D4D" stroke-width="1.3" stroke-linecap="square"></path>
    <path
        d="M17.9375 3.84961C18.814 3.84961 19.5254 4.56101 19.5254 5.4375C19.5254 6.31399 18.814 7.02539 17.9375 7.02539C17.061 7.02539 16.3496 6.31399 16.3496 5.4375C16.3496 4.56101 17.061 3.84961 17.9375 3.84961Z"
        stroke="#554D4D" stroke-width="1.3" stroke-linecap="square"></path>
    <path
        d="M4.1875 16.3496C5.06399 16.3496 5.77539 17.061 5.77539 17.9375C5.77539 18.814 5.06399 19.5254 4.1875 19.5254C3.31101 19.5254 2.59961 18.814 2.59961 17.9375C2.59961 17.061 3.31101 16.3496 4.1875 16.3496Z"
        stroke="#554D4D" stroke-width="1.3" stroke-linecap="square"></path>
    <path
        d="M2.9375 10.7246C3.81399 10.7246 4.52539 11.436 4.52539 12.3125C4.52539 13.189 3.81399 13.9004 2.9375 13.9004C2.06101 13.9004 1.34961 13.189 1.34961 12.3125C1.34961 11.436 2.06101 10.7246 2.9375 10.7246Z"
        stroke="#554D4D" stroke-width="1.3" stroke-linecap="square"></path>
    <path
        d="M21.0625 10.0996C21.939 10.0996 22.6504 10.811 22.6504 11.6875C22.6504 12.564 21.939 13.2754 21.0625 13.2754C20.186 13.2754 19.4746 12.564 19.4746 11.6875C19.4746 10.811 20.186 10.0996 21.0625 10.0996Z"
        stroke="#554D4D" stroke-width="1.3" stroke-linecap="square"></path>
    <path
        d="M18.5625 16.3496C19.439 16.3496 20.1504 17.061 20.1504 17.9375C20.1504 18.814 19.439 19.5254 18.5625 19.5254C17.686 19.5254 16.9746 18.814 16.9746 17.9375C16.9746 17.061 17.686 16.3496 18.5625 16.3496Z"
        stroke="#554D4D" stroke-width="1.3" stroke-linecap="square"></path>
    <path
        d="M11.5003 11.5001C10.9045 11.5001 10.3944 11.2879 9.97012 10.8636C9.54581 10.4393 9.33366 9.92925 9.33366 9.33341C9.33366 8.73758 9.54581 8.22751 9.97012 7.80321C10.3944 7.3789 10.9045 7.16675 11.5003 7.16675C12.0962 7.16675 12.6062 7.3789 13.0305 7.80321C13.4548 8.22751 13.667 8.73758 13.667 9.33341C13.667 9.92925 13.4548 10.4393 13.0305 10.8636C12.6062 11.2879 12.0962 11.5001 11.5003 11.5001ZM7.16699 15.8334V14.3167C7.16699 14.0098 7.24599 13.7277 7.40397 13.4704C7.56196 13.2131 7.77185 13.0167 8.03366 12.8813C8.59338 12.6015 9.16213 12.3916 9.73991 12.2516C10.3177 12.1117 10.9045 12.0417 11.5003 12.0417C12.0962 12.0417 12.683 12.1117 13.2607 12.2516C13.8385 12.3916 14.4073 12.6015 14.967 12.8813C15.2288 13.0167 15.4387 13.2131 15.5967 13.4704C15.7547 13.7277 15.8337 14.0098 15.8337 14.3167V15.8334H7.16699ZM8.25033 14.7501H14.7503V14.3167C14.7503 14.2174 14.7255 14.1272 14.6758 14.0459C14.6262 13.9647 14.5607 13.9015 14.4795 13.8563C13.992 13.6126 13.5 13.4298 13.0035 13.3079C12.5069 13.186 12.0059 13.1251 11.5003 13.1251C10.9948 13.1251 10.4937 13.186 9.9972 13.3079C9.50067 13.4298 9.00866 13.6126 8.52116 13.8563C8.43991 13.9015 8.37446 13.9647 8.3248 14.0459C8.27515 14.1272 8.25033 14.2174 8.25033 14.3167V14.7501ZM11.5003 10.4167C11.7982 10.4167 12.0533 10.3107 12.2654 10.0985C12.4776 9.88637 12.5837 9.63133 12.5837 9.33341C12.5837 9.0355 12.4776 8.78046 12.2654 8.56831C12.0533 8.35616 11.7982 8.25008 11.5003 8.25008C11.2024 8.25008 10.9474 8.35616 10.7352 8.56831C10.5231 8.78046 10.417 9.0355 10.417 9.33341C10.417 9.63133 10.5231 9.88637 10.7352 10.0985C10.9474 10.3107 11.2024 10.4167 11.5003 10.4167Z"
        fill="#554D4D"></path>
</svg>