<svg width="24" height="24" viewBox="0 0 24 24" fill="none" xmlns="http://www.w3.org/2000/svg">
    <path
        d="M5 22V7.56021C5 7.12422 5.14737 6.75519 5.44211 6.45311C5.73684 6.15104 6.09691 6 6.52232 6H19.4777C19.9031 6 20.2632 6.15104 20.5579 6.45311C20.8526 6.75519 21 7.12422 21 7.56021V17.3858C21 17.8218 20.8526 18.1908 20.5579 18.4929C20.2632 18.795 19.9031 18.946 19.4777 18.946H7.97979L5 22ZM7.44211 17.6514H19.4777C19.5425 17.6514 19.6019 17.6237 19.6558 17.5684C19.7098 17.5131 19.7368 17.4523 19.7368 17.3858V7.56021C19.7368 7.49376 19.7098 7.43291 19.6558 7.37767C19.6019 7.32229 19.5425 7.2946 19.4777 7.2946H6.52232C6.45747 7.2946 6.39811 7.32229 6.34421 7.37767C6.29018 7.43291 6.26316 7.49376 6.26316 7.56021V18.8466L7.44211 17.6514Z"
        fill="black"></path>
</svg>