<svg width="24" height="24" viewBox="0 0 24 24" fill="none" xmlns="http://www.w3.org/2000/svg">
    <g clip-path="url(#clip0_10005_22359)">
        <path fill-rule="evenodd" clip-rule="evenodd"
            d="M16.9364 12.01C16.9364 12.8801 17.6879 13.6009 18.6349 13.6009C19.5818 13.6009 20.3332 12.8801 20.3332 12.01C20.3332 11.1398 19.5818 10.4191 18.6349 10.4191C17.6879 10.4191 16.9364 11.1398 16.9364 12.01ZM18.6349 14.9645C16.9169 14.9645 15.5078 13.6503 15.5078 12.01C15.5078 10.3697 16.9169 9.05544 18.6349 9.05544C20.3529 9.05544 21.7618 10.3697 21.7618 12.01C21.7618 13.6503 20.3529 14.9645 18.6349 14.9645Z"
            fill="#554D4D"></path>
        <path fill-rule="evenodd" clip-rule="evenodd"
            d="M3.66661 5.19182C3.66661 6.06197 4.41807 6.78273 5.36504 6.78273C6.31201 6.78273 7.06347 6.06197 7.06347 5.19182C7.06347 4.32168 6.31201 3.60091 5.36504 3.60091C4.41807 3.60091 3.66661 4.32168 3.66661 5.19182ZM5.36504 8.14637C3.647 8.14637 2.23804 6.83206 2.23804 5.19182C2.23804 3.55158 3.647 2.23727 5.36504 2.23727C7.08308 2.23727 8.49204 3.55158 8.49204 5.19182C8.49204 6.83206 7.08308 8.14637 5.36504 8.14637Z"
            fill="#554D4D"></path>
        <path fill-rule="evenodd" clip-rule="evenodd"
            d="M3.66661 18.8282C3.66661 19.6983 4.41807 20.4191 5.36504 20.4191C6.31201 20.4191 7.06347 19.6983 7.06347 18.8282C7.06347 17.958 6.31201 17.2373 5.36504 17.2373C4.41807 17.2373 3.66661 17.958 3.66661 18.8282ZM5.36504 21.7827C3.647 21.7827 2.23804 20.4684 2.23804 18.8282C2.23804 17.1879 3.647 15.8736 5.36504 15.8736C7.08308 15.8736 8.49204 17.1879 8.49204 18.8282C8.49204 20.4684 7.08308 21.7827 5.36504 21.7827Z"
            fill="#554D4D"></path>
        <path fill-rule="evenodd" clip-rule="evenodd"
            d="M7.28551 12.01C7.28551 13.5077 8.57707 14.7373 10.1903 14.7373C11.8035 14.7373 13.0951 13.5077 13.0951 12.01C13.0951 10.5122 11.8035 9.2827 10.1903 9.2827C8.57707 9.2827 7.28551 10.5122 7.28551 12.01ZM10.1903 16.1009C7.80599 16.1009 5.85693 14.2778 5.85693 12.01C5.85693 9.74214 7.80599 7.91907 10.1903 7.91907C12.5746 7.91907 14.5236 9.74214 14.5236 12.01C14.5236 14.2778 12.5746 16.1009 10.1903 16.1009Z"
            fill="#554D4D"></path>
        <path fill-rule="evenodd" clip-rule="evenodd"
            d="M7.62591 9.60443L6.04639 7.37261C6.52142 7.24115 6.9356 6.9757 7.23965 6.6227L8.81892 8.85415C8.36865 9.02796 7.96382 9.2848 7.62591 9.60443ZM13.8094 12.01C13.8094 11.7765 13.7845 11.5485 13.737 11.3282H16.3325C16.2608 11.5434 16.222 11.7725 16.222 12.01C16.222 12.2476 16.2608 12.4766 16.3325 12.6918H13.737C13.7845 12.4715 13.8094 12.2435 13.8094 12.01ZM7.62591 14.4155C7.96382 14.7351 8.36865 14.992 8.81892 15.1658L7.23969 17.3972C6.93562 17.0442 6.52144 16.7787 6.04642 16.6473L7.62591 14.4155Z"
            fill="#554D4D"></path>
    </g>
    <defs>
        <clipPath id="clip0_10005_22359">
            <rect width="20" height="20" fill="white" transform="translate(2 2)"></rect>
        </clipPath>
    </defs>
</svg>