<svg width="24" height="24" viewBox="0 0 24 24" fill="none" xmlns="http://www.w3.org/2000/svg"
    class="pinned-icon topbar-icon">
    <path
        d="M3 21L8.70297 15.297M8.70297 15.297L13.6931 20.2871C13.5188 18.9978 13.6663 17.6988 14.1058 16.5C14.3851 15.7381 14.7824 15.0166 15.2901 14.3639L15.6661 13.8805C16.2838 13.0862 17.021 12.4021 17.8457 11.8491M8.70297 15.297L3.71287 10.3069C5.00218 10.4812 6.30121 10.3337 7.5 9.8942C8.26192 9.61486 8.98335 9.21756 9.63607 8.7099L10.1195 8.33393C10.9138 7.71616 11.5979 6.97904 12.1509 6.15433M12.1509 6.15433C12.3542 5.85123 12.5397 5.5363 12.7065 5.21112C13.0139 4.61163 13.2577 3.9773 13.4312 3.318L13.5149 3L21 10.4851L20.682 10.5688C20.0227 10.7423 19.3884 10.9861 18.7889 11.2935C18.4637 11.4603 18.1488 11.6459 17.8457 11.8491M12.1509 6.15433L17.8457 11.8491"
        stroke="#222020" stroke-width="1.5" stroke-linecap="round" stroke-linejoin="round"></path>
</svg>