<svg xmlns="http://www.w3.org/2000/svg" width="24" height="24" viewBox="0 0 24 24" fill="none">
    <mask id="mask0_714_399" style="mask-type:alpha" maskUnits="userSpaceOnUse" x="0" y="0"
        width="24" height="24">
        <rect width="24" height="24" fill="#D9D9D9" />
    </mask>
    <g mask="url(#mask0_714_399)">
        <path
            d="M8.625 20H5.975C5.425 20 4.95417 19.8042 4.5625 19.4125C4.17083 19.0209 3.975 18.55 3.975 18V15.35L2.075 13.425C1.69167 13.0417 1.5 12.5667 1.5 12C1.5 11.4334 1.69167 10.9584 2.075 10.575L3.975 8.65002V6.00002C3.975 5.45002 4.17083 4.97919 4.5625 4.58752C4.95417 4.19586 5.425 4.00002 5.975 4.00002H8.625L10.55 2.10002C10.9333 1.71669 11.4083 1.52502 11.975 1.52502C12.5417 1.52502 13.0167 1.71669 13.4 2.10002L15.325 4.00002H17.975C18.525 4.00002 18.9958 4.19586 19.3875 4.58752C19.7792 4.97919 19.975 5.45002 19.975 6.00002V8.65002L21.875 10.575C22.2583 10.9584 22.45 11.4334 22.45 12C22.45 12.5667 22.2583 13.0417 21.875 13.425L19.975 15.35V18C19.975 18.55 19.7792 19.0209 19.3875 19.4125C18.9958 19.8042 18.525 20 17.975 20H15.325L13.4 21.9C13.0167 22.2834 12.5417 22.475 11.975 22.475C11.4083 22.475 10.9333 22.2834 10.55 21.9L8.625 20ZM12.2 17C13.6167 17 14.8167 16.5125 15.8 15.5375C16.7833 14.5625 17.275 13.3834 17.275 12C17.275 10.6167 16.7833 9.44169 15.8 8.47502C14.8167 7.50836 13.6167 7.02502 12.2 7.02502C11.9833 7.02502 11.7875 7.03752 11.6125 7.06252C11.4375 7.08752 11.275 7.11669 11.125 7.15002C11.025 7.18336 10.9458 7.23752 10.8875 7.31252C10.8292 7.38752 10.8 7.46669 10.8 7.55002C10.8 7.58336 10.875 7.71669 11.025 7.95002C11.7083 8.40002 12.225 8.98752 12.575 9.71252C12.925 10.4375 13.1 11.2 13.1 12C13.1 12.85 12.9167 13.6334 12.55 14.35C12.1833 15.0667 11.6667 15.6417 11 16.075C10.95 16.1084 10.875 16.2334 10.775 16.45C10.775 16.55 10.8083 16.6375 10.875 16.7125C10.9417 16.7875 11.025 16.8417 11.125 16.875C11.3417 16.925 11.5375 16.9584 11.7125 16.975C11.8875 16.9917 12.05 17 12.2 17Z"
            fill="#9C9696" />
    </g>
</svg>